<?xml version="1.0" encoding="UTF-8" standalone="no"?>
<svg
   xmlns:dc="http://purl.org/dc/elements/1.1/"
   xmlns:cc="http://creativecommons.org/ns#"
   xmlns:rdf="http://www.w3.org/1999/02/22-rdf-syntax-ns#"
   xmlns:svg="http://www.w3.org/2000/svg"
   xmlns="http://www.w3.org/2000/svg"
   xmlns:xlink="http://www.w3.org/1999/xlink"
   xmlns:sodipodi="http://sodipodi.sourceforge.net/DTD/sodipodi-0.dtd"
   xmlns:inkscape="http://www.inkscape.org/namespaces/inkscape"
   width="75.389839mm"
   height="42.333294mm"
   viewBox="0 0 75.389839 42.333294"
   version="1.1"
   id="svg8"
   inkscape:version="1.0.2-2 (e86c870879, 2021-01-15)"
   sodipodi:docname="desenhando.svg">
  <defs
     id="defs2">
    <linearGradient
       id="paint0_linear_4_179"
       x1="142.46899"
       y1="74.755898"
       x2="142.46899"
       y2="135.549"
       gradientUnits="userSpaceOnUse">
      <stop
         stop-color="#D9D9D9"
         id="stop107" />
      <stop
         offset="1"
         stop-color="#D9D9D9"
         stop-opacity="0"
         id="stop109" />
    </linearGradient>
    <linearGradient
       id="paint1_linear_4_179"
       x1="0"
       y1="80.000099"
       x2="285.034"
       y2="80.000099"
       gradientUnits="userSpaceOnUse">
      <stop
         stop-color="#996DFF"
         id="stop112" />
      <stop
         offset="0.5"
         stop-color="#35E8B3"
         id="stop114" />
      <stop
         offset="1"
         stop-color="#E2D45C"
         id="stop116" />
    </linearGradient>
    <linearGradient
       id="paint2_linear_4_179"
       x1="142.51601"
       y1="91.911499"
       x2="142.51601"
       y2="136.16701"
       gradientUnits="userSpaceOnUse">
      <stop
         stop-color="#28203E"
         id="stop119"
         style="stop-color:#203e3c;stop-opacity:1" />
      <stop
         offset="1"
         stop-color="#121214"
         stop-opacity="0"
         id="stop121"
         style="stop-color:#121414;stop-opacity:0" />
    </linearGradient>
    <linearGradient
       id="paint3_linear_4_179"
       x1="28.7906"
       y1="61.0154"
       x2="28.7906"
       y2="78.455101"
       gradientUnits="userSpaceOnUse">
      <stop
         stop-color="#A9A9AD"
         id="stop124" />
      <stop
         offset="1"
         stop-color="#A9A9AD"
         stop-opacity="0"
         id="stop126" />
    </linearGradient>
    <linearGradient
       id="paint4_linear_4_179"
       x1="61.999599"
       y1="61.015099"
       x2="61.999599"
       y2="78.454803"
       gradientUnits="userSpaceOnUse">
      <stop
         stop-color="#A9A9AD"
         id="stop129" />
      <stop
         offset="1"
         stop-color="#A9A9AD"
         stop-opacity="0"
         id="stop131" />
    </linearGradient>
    <linearGradient
       id="paint5_linear_4_179"
       x1="100.196"
       y1="61.015099"
       x2="100.196"
       y2="78.454803"
       gradientUnits="userSpaceOnUse">
      <stop
         stop-color="#A9A9AD"
         id="stop134" />
      <stop
         offset="1"
         stop-color="#A9A9AD"
         stop-opacity="0"
         id="stop136" />
    </linearGradient>
    <linearGradient
       id="paint6_linear_4_179"
       x1="140.153"
       y1="61.015301"
       x2="140.153"
       y2="78.455101"
       gradientUnits="userSpaceOnUse">
      <stop
         stop-color="#A9A9AD"
         id="stop139" />
      <stop
         offset="1"
         stop-color="#A9A9AD"
         stop-opacity="0"
         id="stop141" />
    </linearGradient>
    <linearGradient
       id="paint7_linear_4_179"
       x1="179.36301"
       y1="61.015099"
       x2="179.36301"
       y2="78.454903"
       gradientUnits="userSpaceOnUse">
      <stop
         stop-color="#A9A9AD"
         id="stop144" />
      <stop
         offset="1"
         stop-color="#A9A9AD"
         stop-opacity="0"
         id="stop146" />
    </linearGradient>
    <linearGradient
       id="paint8_linear_4_179"
       x1="212.59399"
       y1="61.014999"
       x2="212.59399"
       y2="78.454803"
       gradientUnits="userSpaceOnUse">
      <stop
         stop-color="#A9A9AD"
         id="stop149" />
      <stop
         offset="1"
         stop-color="#A9A9AD"
         stop-opacity="0"
         id="stop151" />
    </linearGradient>
    <linearGradient
       id="paint9_linear_4_179"
       x1="247.009"
       y1="61.0154"
       x2="247.009"
       y2="78.4552"
       gradientUnits="userSpaceOnUse">
      <stop
         stop-color="#A9A9AD"
         id="stop154" />
      <stop
         offset="1"
         stop-color="#A9A9AD"
         stop-opacity="0"
         id="stop156" />
    </linearGradient>
    <linearGradient
       id="paint10_linear_4_179"
       x1="258.61899"
       y1="114.544"
       x2="66.106796"
       y2="115.532"
       gradientUnits="userSpaceOnUse">
      <stop
         stop-color="#996DFF"
         id="stop159" />
      <stop
         offset="0.5"
         stop-color="#35E8B3"
         id="stop161" />
      <stop
         offset="1"
         stop-color="#E2D45C"
         id="stop163" />
    </linearGradient>
    <radialGradient
       id="paint11_radial_4_179"
       cx="0"
       cy="0"
       r="1"
       gradientUnits="userSpaceOnUse"
       gradientTransform="matrix(124.54549,35.151509,-58.371807,206.81744,140.758,146.212)">
      <stop
         stop-color="#171226"
         id="stop166" />
      <stop
         offset="1"
         stop-color="#171226"
         stop-opacity="0"
         id="stop168" />
    </radialGradient>
    <radialGradient
       id="paint12_radial_4_179"
       cx="0"
       cy="0"
       r="1"
       gradientUnits="userSpaceOnUse"
       gradientTransform="matrix(-26.818138,-11.363743,18.870437,-44.53374,173.94,25.0002)">
      <stop
         stop-color="#261945"
         id="stop171" />
      <stop
         offset="1"
         stop-color="#261945"
         stop-opacity="0"
         id="stop173" />
    </radialGradient>
    <radialGradient
       id="paint13_radial_4_179"
       cx="0"
       cy="0"
       r="1"
       gradientUnits="userSpaceOnUse"
       gradientTransform="matrix(7.5757912,32.121214,-53.339854,12.580209,273.485,107.273)">
      <stop
         stop-color="#191326"
         id="stop176" />
      <stop
         offset="1"
         stop-color="#191326"
         stop-opacity="0"
         id="stop178" />
    </radialGradient>
    <linearGradient
       id="paint14_linear_4_179"
       x1="149.849"
       y1="17.7274"
       x2="192.879"
       y2="126.818"
       gradientUnits="userSpaceOnUse">
      <stop
         stop-color="#996DFF"
         id="stop181" />
      <stop
         offset="0.5"
         stop-color="#35E8B3"
         id="stop183" />
      <stop
         offset="1"
         stop-color="#E2D45C"
         id="stop185" />
    </linearGradient>
    <radialGradient
       id="paint15_radial_4_179"
       cx="0"
       cy="0"
       r="1"
       gradientUnits="userSpaceOnUse"
       gradientTransform="matrix(62.121192,-21.818211,36.230969,103.15745,108.03,27.4244)">
      <stop
         stop-color="#171225"
         id="stop188" />
      <stop
         offset="1"
         stop-color="#171225"
         stop-opacity="0"
         id="stop190" />
    </radialGradient>
    <radialGradient
       id="paint16_radial_4_179"
       cx="0"
       cy="0"
       r="1"
       gradientUnits="userSpaceOnUse"
       gradientTransform="matrix(16.969699,40.909091,-67.932824,28.179545,11.9698,108.788)">
      <stop
         stop-color="#191327"
         id="stop193" />
      <stop
         offset="1"
         stop-color="#191327"
         stop-opacity="0"
         id="stop195" />
    </radialGradient>
    <clipPath
       id="clip0_4_179">
      <rect
         width="285.034"
         height="160"
         fill="#ffffff"
         id="rect198"
         x="0"
         y="0" />
    </clipPath>
    <linearGradient
       inkscape:collect="always"
       xlink:href="#paint2_linear_4_179"
       id="linearGradient1143"
       gradientUnits="userSpaceOnUse"
       x1="142.51601"
       y1="91.911499"
       x2="142.51601"
       y2="136.16701" />
  </defs>
  <sodipodi:namedview
     id="base"
     pagecolor="#ffffff"
     bordercolor="#666666"
     borderopacity="1.0"
     inkscape:pageopacity="0.0"
     inkscape:pageshadow="2"
     inkscape:zoom="2.8"
     inkscape:cx="198.62536"
     inkscape:cy="75.980319"
     inkscape:document-units="mm"
     inkscape:current-layer="g105"
     inkscape:document-rotation="0"
     showgrid="false"
     inkscape:window-width="1920"
     inkscape:window-height="1009"
     inkscape:window-x="-8"
     inkscape:window-y="-8"
     inkscape:window-maximized="1" />
  <metadata
     id="metadata5">
    <rdf:RDF>
      <cc:Work
         rdf:about="">
        <dc:format>image/svg+xml</dc:format>
        <dc:type
           rdf:resource="http://purl.org/dc/dcmitype/StillImage" />
        <dc:title></dc:title>
      </cc:Work>
    </rdf:RDF>
  </metadata>
  <g
     inkscape:label="Layer 1"
     inkscape:groupmode="layer"
     id="layer1"
     transform="translate(23.709802,-3.6852884)">
    <g
       id="g27"
       transform="matrix(1.016659,0,0,1.016659,-0.78036733,-0.0763847)">
      <g
         style="fill:none"
         id="g299"
         transform="matrix(0.26024786,0,0,0.26024786,-22.553712,3.6999945)">
        <g
           clip-path="url(#clip0_4_179)"
           id="g105">
          <mask
             id="mask0_4_179"
             maskUnits="userSpaceOnUse"
             x="0"
             y="17"
             width="285"
             height="125">
            <rect
               y="17.0518"
               width="284.93799"
               height="124.058"
               fill="url(#paint0_linear_4_179)"
               id="rect40"
               x="0" />
          </mask>
          <g
             mask="url(#mask0_4_179)"
             id="g45"
             style="fill-rule:nonzero">
            <path
               d="M 249.225,33.345 233.12,27.9651 166.793,28.1726 155.312,24.0481 145.597,28.0837 104.085,27.97 87.6362,20.4277 h -23.917 l -3.6994,7.5398 H 39.1746 L 0,90.3523 43.6081,139.575 H 241.423 L 285.031,90.3523 249.223,33.3425 Z m -8.807,103.999 H 44.6139 L 2.78265,90.1249 40.4127,30.1991 H 61.416 l 3.6971,-7.5399 h 22.0363 l 16.4436,7.5399 42.447,0.1161 9.329,-3.8774 11.037,3.9664 66.353,-0.2076 14.998,5.0093 34.492,54.9141 -41.831,47.219 z"
               fill="url(#paint1_linear_4_179)"
               id="path43"
               style="fill:url(#paint1_linear_4_179);fill-rule:nonzero" />
          </g>
          <path
             d="M 282.251,90.1247 240.418,137.341 H 44.6138 L 2.78259,90.1247 40.4126,30.1989 H 61.416 l 3.697,-7.5399 h 22.0363 l 16.4467,7.5399 42.444,0.1186 9.329,-3.8774 11.036,3.9664 66.354,-0.2076 14.998,5.0117 z"
             fill="url(#paint2_linear_4_179)"
             id="path47"
             style="fill:url(#linearGradient1143)" />
          <path
             d="M 282.246,90.1247 247.759,35.2106 232.756,30.2013 166.407,30.4039 155.371,26.4375 146.037,30.315 103.593,30.2013 87.1488,22.6614 H 65.1149 l -3.697,7.5399 H 40.4171 L 2.78455,90.1247 H 27.9495 l 18.967,14.0983 h 30.7179 l 4.599,-14.0983 h 19.9256 l 4.58,-19.9481 h 4.544 l 6.139,-2.6739 -1.288,13.5376 16.973,9.0844 z"
             fill="#4a357d"
             id="path49"
             style="fill:#357d7c;fill-opacity:1" />
          <path
             d="m 16.1102,82.7579 h 21.4383 l 3.6847,-7.0678 h -9.507 l 6.7268,-11.7929 11.0219,-4.0134 3.482,-6.6724 -10.4906,3.6501 5.5826,-9.7887 -3.2892,-4.9698 h 6.1263 7.8635 l 2.3651,-4.5347 H 44.4903 Z"
             fill="#ffffff"
             id="path51" />
          <path
             d="m 69.7097,30.0257 -12.4453,25.3948 15.0896,8.9559 5.9211,3.0594 -8.9608,4.8659 -6.324,16.4809 H 52.8408 L 63.6946,63.6918 55.5864,58.8432 40.2571,90.1171 49.3489,96.8563 H 72.2897 L 83.6551,62.0015 68.1231,53.4533 76.4834,34.128 h 7.4732 l 5.0858,2.1377 -7.1938,3.3584 -4.9104,12.8037 8.3702,4.4977 7.651,-23.4647 -7.4286,-3.4351 z"
             fill="#ffffff"
             id="path53" />
          <path
             d="M 97.6869,37.5678 84.7078,82.7574 h 11.5828 l 4.5814,-19.9481 h 8.877 l 11.027,-4.8016 2.044,-16.5922 -8.511,-3.8477 H 97.6844 Z m 14.8841,9.6355 -1.779,9.848 h -8.595 l 3.433,-14.9512 h 7.863 l 5.803,2.3601 -6.725,2.7406 z"
             fill="#ffffff"
             id="path55" />
          <path
             d="m 127.668,37.5678 -3.736,39.2907 11.022,5.8989 h 21.438 l -2.849,-41.3419 -9.248,-3.8477 h -16.624 z m 16.783,13.9033 0.277,24.216 h -9.507 l 1.262,-33.587 h 7.864 l 6.042,2.3601 -5.936,7.0109 z"
             fill="#ffffff"
             id="path57" />
          <path
             d="m 159.881,41.4328 4.486,41.3246 h 11.583 l -3.314,-19.9481 h 8.877 l 4.29,19.9481 h 11.585 l -5.197,-19.0658 -6.818,-2.8865 5.268,-2.7974 -5.572,-20.4399 h -16.625 z m 20.396,15.6185 h -8.595 l -1.626,-9.7961 -6.707,-2.7926 5.849,-2.36 h 7.864 l 3.215,14.9511 z"
             fill="#ffffff"
             id="path59" />
          <path
             d="m 189.366,42.1026 h 7.743 l 13.816,40.6548 h 11.586 L 208.306,47.013 200.193,42.0482 h 13.76 l -1.992,-4.4804 h -23.917 z"
             fill="#ffffff"
             id="path61" />
          <path
             d="m 252.7,56.9252 -9.774,-15.5615 -11.368,-3.7959 h -16.624 l 8.283,17.8524 23.633,8.9559 6.455,11.3135 h -9.509 l -6.255,-11.998 -12.737,-4.8487 8.358,18.0156 14.321,5.8989 h 21.438 L 255.885,62.0012 232.2,53.4531 l -3.318,-6.366 -8.722,-4.9845 h 13.985 l 5.889,10.3249 z"
             fill="#ffffff"
             id="path63" />
          <path
             d="m 155.759,32.1531 c -1.214,1.1838 -2.588,2.281 -4.098,3.2769 1.651,1.0058 3.22,2.1525 4.686,3.4203 1.243,-1.2678 2.612,-2.4145 4.085,-3.4203 -1.686,-0.9959 -3.253,-2.0931 -4.673,-3.2769 z"
             fill="#e2d45c"
             id="path65"
             style="fill:#9eeccd;fill-opacity:1" />
          <path
             d="m 29.1737,77.1725 6.9566,-12.1982 c -2.58,0.2941 -5.1378,0.5956 -7.6733,0.9095 l -9.6651,15.391 h 17.8574 l 2.1376,-4.1023 z"
             fill="url(#paint3_linear_4_179)"
             id="path67"
             style="fill:url(#paint3_linear_4_179)" />
          <path
             d="m 79.0514,61.1609 c -2.7629,0.1804 -5.5085,0.3731 -8.2368,0.5782 l 2.2588,1.3395 7.4212,3.8329 1.3691,-4.2036 z M 70.5008,73.3418 64.0112,90.265 H 50.5848 L 61.8192,64.2969 59.1156,62.6807 c -1.3147,0.1137 -2.6269,0.2298 -3.9318,0.3509 l -13.0507,26.628 7.7054,5.7135 h 21.374 l 8.8818,-27.2383 z"
             fill="url(#paint4_linear_4_179)"
             id="path69"
             style="fill:url(#paint4_linear_4_179)" />
          <path
             d="m 113.711,59.468 -4.267,1.8584 H 99.6944 L 95.1127,81.2745 H 86.6782 L 92.6859,60.3552 C 99.6005,59.992 106.611,59.6954 113.711,59.468 Z"
             fill="url(#paint5_linear_4_179)"
             id="path71"
             style="fill:url(#paint5_linear_4_179)" />
          <path
             d="m 154.803,81.2748 h -19.476 l -9.826,-5.2564 1.609,-16.901 c 2.409,-0.0495 4.826,-0.089 7.253,-0.1211 l -0.682,18.1762 h 12.547 L 146.02,58.8999 c 1.11,-0.0025 2.222,-0.0049 3.336,-0.0049 1.305,0 2.607,0.0024 3.905,0.0074 z"
             fill="url(#paint6_linear_4_179)"
             id="path73"
             style="fill:url(#paint6_linear_4_179)" />
          <path
             d="m 195.448,81.2746 h -8.447 l -4.29,-19.9481 h -11.825 l 3.314,19.9481 h -8.504 l -2.419,-22.2933 c 7.236,0.089 14.395,0.2496 21.468,0.477 l -2.82,1.4975 9.025,3.8206 z"
             fill="url(#paint7_linear_4_179)"
             id="path75"
             style="fill:url(#paint7_linear_4_179)" />
          <path
             d="m 212.147,60.6938 c -2.417,-0.1409 -4.846,-0.2743 -7.288,-0.3979 l 7.13,20.9786 h 8.338 z"
             fill="url(#paint8_linear_4_179)"
             id="path77"
             style="fill:url(#paint8_linear_4_179)" />
          <path
             d="m 255.52,64.2058 c -2.478,-0.2595 -4.974,-0.5115 -7.49,-0.7537 l 7.829,13.7205 h -12.962 l -6.41,-12.2946 -8.163,-3.1088 c -0.183,-0.0149 -0.363,-0.0272 -0.546,-0.0396 l 6.487,13.98 13.51,5.5653 h 18.466 z"
             fill="url(#paint9_linear_4_179)"
             id="path79"
             style="fill:url(#paint9_linear_4_179)" />
          <path
             fill-rule="evenodd"
             clip-rule="evenodd"
             d="m 118.122,116.011 v -3.049 l -8.424,3.133 h -0.018 v 3.129 h 0.018 l 8.424,3.134 v -3.055 l -4.317,-1.651 z"
             fill="#996dff"
             id="path81"
             style="fill:#6dffe0;fill-opacity:1" />
          <path
             fill-rule="evenodd"
             clip-rule="evenodd"
             d="m 166.92,122.2 v -3.05 l 4.315,-1.641 -4.315,-1.641 v -3.049 l 8.413,3.131 h 0.019 v 3.131 h -0.019 l -8.413,3.116 z m -3.613,-13.689 -4.947,15.881 h 2.938 l 4.948,-15.881 z"
             fill="#996dff"
             id="path83"
             style="fill:#6dffe0;fill-opacity:1" />
          <path
             fill-rule="evenodd"
             clip-rule="evenodd"
             d="m 130.501,112.386 c 0.836,0.919 1.275,2.13 1.224,3.371 v 6.764 h -2.939 v -6.144 c 0.035,-0.684 -0.185,-1.357 -0.613,-1.89 -0.407,-0.475 -1.01,-0.737 -1.636,-0.71 -1.838,0 -2.76,1.276 -2.76,3.828 v 4.918 h -2.938 v -11.106 h 2.938 v 1.004 c 0.932,-0.907 2.197,-1.389 3.497,-1.335 1.211,-0.052 2.387,0.423 3.225,1.3 z"
             fill="#ffffff"
             id="path85" />
          <path
             fill-rule="evenodd"
             clip-rule="evenodd"
             d="m 135.464,106.799 v 15.88 h 2.938 v -15.88 z"
             fill="#ffffff"
             id="path87" />
          <path
             fill-rule="evenodd"
             clip-rule="evenodd"
             d="m 155.003,122.098 h -2.451 l -2.402,-6.541 -2.424,6.541 h -2.447 l -4.117,-11.126 h 3.138 l 2.313,6.653 2.385,-6.653 h 2.291 l 2.385,6.675 2.313,-6.675 h 3.139 z"
             fill="#ffffff"
             id="path89" />
          <path
             d="M 11.9786,25.9287 C 15.305,17.8946 22.0219,11.5632 31.9366,7.11248 41.4362,2.84707 53.4738,0.474649 67.7108,0.0644182 96.8965,-0.778285 132.129,6.6899 166.913,21.0999 c 2.5,1.0354 4.979,2.0981 7.431,3.1879 l -3.468,0.0099 c -1.487,-0.645 -2.987,-1.2801 -4.5,-1.9053 C 95.1122,-7.12451 26.4282,-5.29824 13.2711,26.465 9.46042,35.6631 10.7183,46.376 16.16,57.6747 c 13.3424,27.7227 51.8621,58.9623 102.494,79.9333 4.898,2.029 9.801,3.917 14.696,5.664 29.702,10.607 59.039,15.982 83.929,15.263 14.055,-0.406 25.909,-2.736 35.241,-6.925 9.581,-4.3 16.053,-10.382 19.239,-18.075 2.874,-6.942 2.864,-14.746 0.346,-23.015 l 1.075,-1.213 c 2.95,9.114 2.911,17.435 -0.126,24.765 -3.329,8.034 -10.044,14.365 -19.961,18.816 -9.499,4.265 -21.534,6.638 -35.771,7.048 -1.488,0.042 -2.991,0.064 -4.508,0.064 -25.091,0 -54.235,-5.849 -83.556,-16.728 -3.715,-1.376 -7.429,-2.834 -11.141,-4.372 C 83.3341,124.493 53.1401,104.864 33.0981,83.628 25.2172,75.2776 19.2467,67.0383 15.2902,59.0586 14.3362,57.1384 13.501,55.2355 12.7843,53.35 8.92168,43.1906 8.64985,33.9653 11.9786,25.9287 Z"
             fill="url(#paint10_linear_4_179)"
             id="path91"
             style="fill:url(#paint10_linear_4_179)" />
          <path
             d="M 11.9786,25.9287 C 15.305,17.8946 22.0219,11.5632 31.9366,7.11248 41.4362,2.84707 53.4738,0.474649 67.7108,0.0644182 96.8965,-0.778285 132.129,6.6899 166.913,21.0999 c 2.5,1.0354 4.979,2.0981 7.431,3.1879 l -3.468,0.0099 c -1.487,-0.645 -2.987,-1.2801 -4.5,-1.9053 C 95.1122,-7.12451 26.4282,-5.29824 13.2711,26.465 9.46042,35.6631 10.7183,46.376 16.16,57.6747 c 13.3424,27.7227 51.8621,58.9623 102.494,79.9333 4.898,2.029 9.801,3.917 14.696,5.664 29.702,10.607 59.039,15.982 83.929,15.263 14.055,-0.406 25.909,-2.736 35.241,-6.925 9.581,-4.3 16.053,-10.382 19.239,-18.075 2.874,-6.942 2.864,-14.746 0.346,-23.015 l 1.075,-1.213 c 2.95,9.114 2.911,17.435 -0.126,24.765 -3.329,8.034 -10.044,14.365 -19.961,18.816 -9.499,4.265 -21.534,6.638 -35.771,7.048 -1.488,0.042 -2.991,0.064 -4.508,0.064 -25.091,0 -54.235,-5.849 -83.556,-16.728 -3.715,-1.376 -7.429,-2.834 -11.141,-4.372 C 83.3341,124.493 53.1401,104.864 33.0981,83.628 25.2172,75.2776 19.2467,67.0383 15.2902,59.0586 14.3362,57.1384 13.501,55.2355 12.7843,53.35 8.92168,43.1906 8.64985,33.9653 11.9786,25.9287 Z"
             fill="url(#paint11_radial_4_179)"
             id="path93"
             style="fill:url(#paint11_radial_4_179)" />
          <path
             d="M 11.9786,25.9287 C 15.305,17.8946 22.0219,11.5632 31.9366,7.11248 41.4362,2.84707 53.4738,0.474649 67.7108,0.0644182 96.8965,-0.778285 132.129,6.6899 166.913,21.0999 c 2.5,1.0354 4.979,2.0981 7.431,3.1879 l -3.468,0.0099 c -1.487,-0.645 -2.987,-1.2801 -4.5,-1.9053 C 95.1122,-7.12451 26.4282,-5.29824 13.2711,26.465 9.46042,35.6631 10.7183,46.376 16.16,57.6747 c 13.3424,27.7227 51.8621,58.9623 102.494,79.9333 4.898,2.029 9.801,3.917 14.696,5.664 29.702,10.607 59.039,15.982 83.929,15.263 14.055,-0.406 25.909,-2.736 35.241,-6.925 9.581,-4.3 16.053,-10.382 19.239,-18.075 2.874,-6.942 2.864,-14.746 0.346,-23.015 l 1.075,-1.213 c 2.95,9.114 2.911,17.435 -0.126,24.765 -3.329,8.034 -10.044,14.365 -19.961,18.816 -9.499,4.265 -21.534,6.638 -35.771,7.048 -1.488,0.042 -2.991,0.064 -4.508,0.064 -25.091,0 -54.235,-5.849 -83.556,-16.728 -3.715,-1.376 -7.429,-2.834 -11.141,-4.372 C 83.3341,124.493 53.1401,104.864 33.0981,83.628 25.2172,75.2776 19.2467,67.0383 15.2902,59.0586 14.3362,57.1384 13.501,55.2355 12.7843,53.35 8.92168,43.1906 8.64985,33.9653 11.9786,25.9287 Z"
             fill="url(#paint12_radial_4_179)"
             id="path95"
             style="fill:url(#paint12_radial_4_179)" />
          <path
             d="M 11.9786,25.9287 C 15.305,17.8946 22.0219,11.5632 31.9366,7.11248 41.4362,2.84707 53.4738,0.474649 67.7108,0.0644182 96.8965,-0.778285 132.129,6.6899 166.913,21.0999 c 2.5,1.0354 4.979,2.0981 7.431,3.1879 l -3.468,0.0099 c -1.487,-0.645 -2.987,-1.2801 -4.5,-1.9053 C 95.1122,-7.12451 26.4282,-5.29824 13.2711,26.465 9.46042,35.6631 10.7183,46.376 16.16,57.6747 c 13.3424,27.7227 51.8621,58.9623 102.494,79.9333 4.898,2.029 9.801,3.917 14.696,5.664 29.702,10.607 59.039,15.982 83.929,15.263 14.055,-0.406 25.909,-2.736 35.241,-6.925 9.581,-4.3 16.053,-10.382 19.239,-18.075 2.874,-6.942 2.864,-14.746 0.346,-23.015 l 1.075,-1.213 c 2.95,9.114 2.911,17.435 -0.126,24.765 -3.329,8.034 -10.044,14.365 -19.961,18.816 -9.499,4.265 -21.534,6.638 -35.771,7.048 -1.488,0.042 -2.991,0.064 -4.508,0.064 -25.091,0 -54.235,-5.849 -83.556,-16.728 -3.715,-1.376 -7.429,-2.834 -11.141,-4.372 C 83.3341,124.493 53.1401,104.864 33.0981,83.628 25.2172,75.2776 19.2467,67.0383 15.2902,59.0586 14.3362,57.1384 13.501,55.2355 12.7843,53.35 8.92168,43.1906 8.64985,33.9653 11.9786,25.9287 Z"
             fill="url(#paint13_radial_4_179)"
             id="path97"
             style="fill:url(#paint13_radial_4_179)" />
          <path
             d="M 273.053,25.9287 C 269.727,17.8946 263.01,11.5632 253.095,7.11248 243.596,2.84707 231.558,0.474649 217.321,0.0644182 188.136,-0.778285 152.903,6.6899 118.12,21.0999 c -2.501,1.0354 -4.98,2.0981 -7.432,3.1879 l 3.468,0.0099 c 1.487,-0.645 2.987,-1.2801 4.5,-1.9053 71.264,-29.51691 139.948,-27.69064 153.105,4.0726 3.811,9.1981 2.553,19.911 -2.889,31.2097 -13.342,27.7227 -51.862,58.9623 -102.493,79.9333 -4.899,2.029 -9.802,3.917 -14.697,5.664 -29.702,10.607 -59.0388,15.982 -83.9294,15.263 -14.0541,-0.406 -25.9088,-2.736 -35.2403,-6.925 -9.5812,-4.3 -16.0534,-10.382 -19.2389,-18.075 -2.8741,-6.942 -2.8642,-14.746 -0.346,-23.015 l -1.075,-1.213 c -2.95067,9.114 -2.91113,17.435 0.1261,24.765 3.3288,8.034 10.0432,14.365 19.9604,18.816 9.4996,4.265 21.5347,6.638 35.7717,7.048 1.4877,0.042 2.9902,0.064 4.5076,0.064 25.0908,0 54.2348,-5.849 83.5558,-16.728 3.715,-1.376 7.429,-2.834 11.141,-4.372 34.783,-14.407 64.977,-34.036 85.019,-55.272 7.881,-8.3504 13.851,-16.5897 17.808,-24.5694 0.954,-1.9202 1.789,-3.8231 2.506,-5.7086 3.862,-10.1594 4.134,-19.3847 0.805,-27.4213 z"
             fill="url(#paint14_linear_4_179)"
             id="path99"
             style="fill:url(#paint14_linear_4_179)" />
          <path
             d="M 273.053,25.9287 C 269.727,17.8946 263.01,11.5632 253.095,7.11248 243.596,2.84707 231.558,0.474649 217.321,0.0644182 188.136,-0.778285 152.903,6.6899 118.12,21.0999 c -2.501,1.0354 -4.98,2.0981 -7.432,3.1879 l 3.468,0.0099 c 1.487,-0.645 2.987,-1.2801 4.5,-1.9053 71.264,-29.51691 139.948,-27.69064 153.105,4.0726 3.811,9.1981 2.553,19.911 -2.889,31.2097 -13.342,27.7227 -51.862,58.9623 -102.493,79.9333 -4.899,2.029 -9.802,3.917 -14.697,5.664 -29.702,10.607 -59.0388,15.982 -83.9294,15.263 -14.0541,-0.406 -25.9088,-2.736 -35.2403,-6.925 -9.5812,-4.3 -16.0534,-10.382 -19.2389,-18.075 -2.8741,-6.942 -2.8642,-14.746 -0.346,-23.015 l -1.075,-1.213 c -2.95067,9.114 -2.91113,17.435 0.1261,24.765 3.3288,8.034 10.0432,14.365 19.9604,18.816 9.4996,4.265 21.5347,6.638 35.7717,7.048 1.4877,0.042 2.9902,0.064 4.5076,0.064 25.0908,0 54.2348,-5.849 83.5558,-16.728 3.715,-1.376 7.429,-2.834 11.141,-4.372 34.783,-14.407 64.977,-34.036 85.019,-55.272 7.881,-8.3504 13.851,-16.5897 17.808,-24.5694 0.954,-1.9202 1.789,-3.8231 2.506,-5.7086 3.862,-10.1594 4.134,-19.3847 0.805,-27.4213 z"
             fill="url(#paint15_radial_4_179)"
             id="path101"
             style="fill:url(#paint15_radial_4_179)" />
          <path
             d="M 273.053,25.9287 C 269.727,17.8946 263.01,11.5632 253.095,7.11248 243.596,2.84707 231.558,0.474649 217.321,0.0644182 188.136,-0.778285 152.903,6.6899 118.12,21.0999 c -2.501,1.0354 -4.98,2.0981 -7.432,3.1879 l 3.468,0.0099 c 1.487,-0.645 2.987,-1.2801 4.5,-1.9053 71.264,-29.51691 139.948,-27.69064 153.105,4.0726 3.811,9.1981 2.553,19.911 -2.889,31.2097 -13.342,27.7227 -51.862,58.9623 -102.493,79.9333 -4.899,2.029 -9.802,3.917 -14.697,5.664 -29.702,10.607 -59.0388,15.982 -83.9294,15.263 -14.0541,-0.406 -25.9088,-2.736 -35.2403,-6.925 -9.5812,-4.3 -16.0534,-10.382 -19.2389,-18.075 -2.8741,-6.942 -2.8642,-14.746 -0.346,-23.015 l -1.075,-1.213 c -2.95067,9.114 -2.91113,17.435 0.1261,24.765 3.3288,8.034 10.0432,14.365 19.9604,18.816 9.4996,4.265 21.5347,6.638 35.7717,7.048 1.4877,0.042 2.9902,0.064 4.5076,0.064 25.0908,0 54.2348,-5.849 83.5558,-16.728 3.715,-1.376 7.429,-2.834 11.141,-4.372 34.783,-14.407 64.977,-34.036 85.019,-55.272 7.881,-8.3504 13.851,-16.5897 17.808,-24.5694 0.954,-1.9202 1.789,-3.8231 2.506,-5.7086 3.862,-10.1594 4.134,-19.3847 0.805,-27.4213 z"
             fill="url(#paint16_radial_4_179)"
             id="path103"
             style="fill:url(#paint16_radial_4_179)" />
        </g>
      </g>
    </g>
  </g>
</svg>
